<svg width="46" height="46" viewBox="0 0 46 46" fill="none" xmlns="http://www.w3.org/2000/svg">
<circle cx="23" cy="23" r="23" fill="white"/>
<path d="M23 5L25.9939 8.91467L30.3213 6.55618L31.4641 11.3502L36.3766 10.9556L35.4708 15.8L40.119 17.4377L37.3211 21.4948L40.9014 24.8815L36.6952 27.4498L38.5885 32L33.7013 32.6355L33.5801 37.5623L28.857 36.1551L26.7424 40.6067L23 37.4L19.2576 40.6067L17.143 36.1551L12.4199 37.5623L12.2987 32.6355L7.41154 32L9.30479 27.4498L5.09861 24.8815L8.67888 21.4948L5.88098 17.4377L10.5292 15.8L9.62339 10.9556L14.5359 11.3502L15.6787 6.55618L20.0061 8.91467L23 5Z" fill="#067AFF"/>
<path d="M31.3592 17.6648C30.9722 17.2933 30.3611 17.2933 29.9741 17.6648L21.3592 25.9352C20.9722 26.3067 20.3611 26.3067 19.9741 25.9352L18.0259 24.0648C17.6389 23.6933 17.0278 23.6933 16.6408 24.0648L14.7514 25.8786C14.3415 26.2722 14.3415 26.9278 14.7514 27.3214L19.9741 32.3352C20.3611 32.7067 20.9722 32.7067 21.3592 32.3352L33.2486 20.9214C33.6585 20.5278 33.6585 19.8722 33.2486 19.4786L31.3592 17.6648Z" fill="white"/>
</svg>
