<svg width="251" height="55" viewBox="0 0 251 55" fill="none" xmlns="http://www.w3.org/2000/svg">
<path d="M183.415 18.9045C182.51 18.9045 181.698 18.9045 180.843 18.9045C180.689 17.7536 180.922 16.7127 181.762 15.8565C182.18 15.4306 182.682 15.0813 183.144 14.695C183.604 14.3105 183.89 13.8547 183.867 13.2423C183.836 12.402 183.516 11.9057 182.827 11.7051C182.004 11.4657 181.118 11.7051 180.72 12.3844C180.451 12.8437 180.337 13.3857 180.129 13.9585C179.334 13.9585 178.422 13.9585 177.51 13.9585C177.261 12.4249 178.448 10.497 180.146 9.86431C181.89 9.21407 183.634 9.3179 185.234 10.2867C187.305 11.5405 187.446 14.3369 185.557 15.8732C185.383 16.0158 185.194 16.1434 185.005 16.2692C184.057 16.9018 183.175 17.5697 183.415 18.9045Z" fill="black"/>
<path d="M180.614 23.6305C180.614 22.5598 180.614 21.5406 180.614 20.4798C181.662 20.4798 182.695 20.4798 183.751 20.4798C183.751 21.5315 183.751 22.5639 183.751 23.6305C182.703 23.6305 181.685 23.6305 180.614 23.6305Z" fill="black"/>
<path d="M21.2117 55C17.0519 55 13.0653 54.4528 9.25214 53.3582C5.43893 52.214 2.36856 50.7463 0.0410156 48.9552L4.1266 39.8508C6.3551 41.4428 8.97977 42.7612 12.0006 43.806C15.071 44.801 18.1661 45.2985 21.286 45.2985C23.6631 45.2985 25.5698 45.0747 27.0058 44.6269C28.4915 44.1293 29.581 43.4577 30.2743 42.612C30.9675 41.7663 31.3143 40.7961 31.3143 39.7015C31.3143 38.3084 30.7696 37.214 29.68 36.4179C28.5905 35.5722 27.1544 34.9006 25.3716 34.403C23.5888 33.8558 21.6079 33.3582 19.4289 32.9105C17.2995 32.4129 15.1453 31.8159 12.9663 31.1194C10.8368 30.423 8.88073 29.5275 7.09793 28.4329C5.31513 27.3383 3.85422 25.8956 2.71522 24.1045C1.62573 22.3135 1.08098 20.0249 1.08098 17.2389C1.08098 14.2538 1.87333 11.5424 3.45805 9.10454C5.09228 6.61696 7.51886 4.6518 10.7378 3.20902C14.0063 1.71648 18.0918 0.970215 22.9945 0.970215C26.263 0.970215 29.4819 1.36822 32.6514 2.16424C35.8208 2.91051 38.6187 4.05478 41.0454 5.59708L37.3312 14.7762C34.9046 13.3831 32.4781 12.3632 30.0514 11.7165C27.6248 11.02 25.2477 10.6717 22.9203 10.6717C20.5928 10.6717 18.6861 10.9453 17.2004 11.4926C15.7148 12.0399 14.65 12.7613 14.0063 13.6568C13.3625 14.5025 13.0406 15.4976 13.0406 16.6418C13.0406 17.9851 13.5853 19.0797 14.6748 19.9254C15.7643 20.7215 17.2004 21.3681 18.9832 21.8657C20.766 22.3633 22.7221 22.8607 24.8516 23.3583C27.0305 23.8558 29.1847 24.4278 31.3143 25.0747C33.4932 25.7215 35.4741 26.592 37.2569 27.6866C39.0397 28.7812 40.4758 30.2239 41.5653 32.015C42.7043 33.806 43.2739 36.0696 43.2739 38.806C43.2739 41.7413 42.4567 44.4278 40.8225 46.8657C39.1883 49.3036 36.7369 51.2687 33.4685 52.7612C30.2496 54.2538 26.164 55 21.2117 55Z" fill="black"/>
<path d="M44.6628 54.1044L67.8392 1.86566H79.7245L102.975 54.1044H90.347L71.3305 7.98506H76.0846L56.9939 54.1044H44.6628ZM56.251 42.9104L59.4452 33.7313H86.1872L89.4556 42.9104H56.251Z" fill="black"/>
<path d="M121.14 54.1044L98.7068 1.86566H111.706L131.317 48.1343H123.666L143.574 1.86566H155.533L133.026 54.1044H121.14Z" fill="black"/>
<path d="M158.398 37.2229C158.057 37.0748 157.747 36.9688 157.467 36.8127C156.926 36.5128 156.784 36.1108 156.979 35.5265C157.069 35.2572 157.188 34.9968 157.26 34.7231C157.455 33.9987 157.243 33.4567 156.58 33.0959C156.188 32.883 155.76 32.7304 155.338 32.5815C153.889 32.069 153.591 31.4317 154.388 30.114C155.771 27.8225 157.228 25.575 158.675 23.3229C158.908 22.9604 158.977 22.7037 158.675 22.3356C158.074 21.6024 157.961 20.7145 158.155 19.8252C158.923 16.2967 159.845 12.8204 161.705 9.66635C164.416 5.06895 168.473 2.29095 173.551 0.88266C177.59 -0.236617 181.667 -0.198022 185.769 0.477854C188.653 0.952671 191.409 1.78113 193.87 3.39946C198.819 6.65677 201.701 11.238 202.414 17.101C203.15 23.1543 201.207 28.4177 197.376 33.0617C196.824 33.7313 196.247 34.3811 195.695 35.0507C194.501 36.4994 194.009 38.2164 193.725 40.0332C193.106 43.9763 193.379 47.8151 194.958 51.5158C195.12 51.8973 195.363 52.2438 195.55 52.6164C195.641 52.7975 195.751 53.0059 195.736 53.1925C195.725 53.3192 195.526 53.4466 195.391 53.5417C195.329 53.5839 195.216 53.5498 195.125 53.5498C186.967 53.5498 178.808 53.5453 170.649 53.5615C170.208 53.5623 170.039 53.4339 169.988 53.0139C169.831 51.7089 169.654 50.4056 169.475 49.1031C169.414 48.6598 169.365 48.21 169.241 47.7819C169.023 47.0209 168.549 46.6304 167.756 46.6681C166.801 46.713 165.85 46.8574 164.9 46.9794C163.547 47.1528 162.202 47.3753 160.83 47.1266C158.76 46.7507 157.647 45.2408 158.017 43.1738C158.145 42.4602 158.399 41.7628 158.647 41.077C158.92 40.3231 158.87 40.0287 158.251 39.5072C158.045 39.3339 157.831 39.1679 157.639 38.9794C157.154 38.5002 157.17 38.1994 157.702 37.7559C157.916 37.5748 158.146 37.4132 158.398 37.2229ZM188.503 6.51317C188.479 6.46289 188.41 6.31749 188.339 6.17477C187.751 4.99716 186.343 4.48283 185.169 5.06895C184.784 5.26104 184.496 5.22873 184.179 5.00613C183.996 4.87778 183.803 4.76018 183.636 4.61298C182.496 3.61578 180.805 3.67502 179.796 4.79968C179.509 5.12013 179.214 5.19283 178.845 5.11115C178.629 5.06358 178.42 4.97203 178.218 4.87957C176.841 4.25126 175.229 4.72697 174.434 6.00244C174.099 6.54009 174.099 6.54009 173.505 6.30492C171.171 5.38132 168.737 6.51943 167.926 8.89354C167.867 9.06856 167.674 9.23999 167.501 9.32796C166.913 9.62507 166.477 10.0532 166.417 10.7138C166.374 11.1895 166.144 11.3583 165.737 11.5172C164.263 12.0907 163.397 13.1866 163.28 14.7601C163.159 16.3892 163.876 17.6252 165.321 18.4069C165.593 18.5541 165.693 18.6987 165.693 19.0145C165.693 20.8789 166.539 22.28 168.206 23.0914C169.875 23.9037 171.495 23.6837 172.983 22.5636C173.078 22.4918 173.176 22.4244 173.303 22.3347C173.303 22.4298 173.308 22.4604 173.302 22.4873C172.908 24.1864 173.345 25.6522 174.666 26.7787C175.988 27.9059 177.505 28.0953 179.132 27.4608C179.27 27.4069 179.512 27.4634 179.637 27.5586C180.316 28.0748 180.715 28.7892 180.978 29.5854C181.405 30.877 181.823 32.1703 182.253 33.4612C182.425 33.9817 182.761 34.1505 183.431 34.1173C183.936 34.0921 184.065 33.7591 184.147 33.3479C184.27 32.7322 184.407 32.1201 184.547 31.508C184.611 31.228 184.694 30.9533 184.798 30.5692C185.014 30.8259 185.161 30.9882 185.295 31.1615C186.57 32.8121 188.766 32.9612 190.239 31.4882C191.064 30.6651 191.528 29.6671 191.626 28.6222C192.2 28.7121 192.765 28.8862 193.322 28.8628C193.862 28.8405 194.41 28.6582 194.926 28.4714C195.825 28.1457 196.258 27.4573 196.306 26.5112C196.36 25.4198 195.877 24.5186 195.294 23.6308C196.758 23.4216 197.619 22.5026 198.08 21.1903C198.811 19.1097 198.823 17.1378 197.023 15.5141C197.448 14.6371 197.428 14.5581 196.726 13.8078C196.654 13.7297 196.646 13.5421 196.678 13.4227C197.017 12.1069 196.366 10.9427 195.062 10.5522C194.965 10.5235 194.874 10.4786 194.783 10.4419C194.783 10.3718 194.778 10.327 194.783 10.2839C195.079 8.3101 193.196 7.00053 191.719 7.41611C191.573 7.4574 191.3 7.29943 191.183 7.15492C190.861 6.75192 190.492 6.40544 189.974 6.37583C189.515 6.34889 189.045 6.45662 188.503 6.51317Z" fill="black"/>
<path d="M212.118 54.1044V1.86566H224.152V44.2537H250.226V54.1044H212.118Z" fill="black"/>
</svg>
